<svg xmlns="http://www.w3.org/2000/svg" width="512" height="512" viewBox="0 0 512 512" role="img" aria-label="FrioTech maskable">
  <defs>
    <linearGradient id="bg" x1="0" y1="0" x2="1" y2="1">
      <stop offset="0%" stop-color="#091521" />
      <stop offset="100%" stop-color="#132B44" />
    </linearGradient>
    <linearGradient id="core" x1="0" y1="0" x2="1" y2="1">
      <stop offset="0%" stop-color="#3DDEFF" />
      <stop offset="100%" stop-color="#4D71FF" />
    </linearGradient>
  </defs>
  <rect width="512" height="512" fill="url(#bg)" />
  <rect x="96" y="96" width="320" height="320" rx="88" fill="url(#core)" opacity="0.24" />
  <path d="M172 172h172v38H214v56h116v38H214v94h-42V172z" fill="#FFFFFF" />
  <path d="M292 172h38c23 0 42 19 42 42v142c0 23-19 42-42 42h-38v-38h30c5 0 10-4 10-10V222c0-6-5-10-10-10h-30v-40z" fill="#61F3FF" />
</svg>
